PathFileType	4	(X/Y/Z)	./resultDataOpenSim/trcMotMarkerGrf/sub09/qtm-05-07.trc
DataRate	CameraRate	NumFrames	NumMarkers	Units	OrigDataRate	OrigDataStartFrame	OrigNumFrames
250.000000	250.000000	9	24	m	250.000000	193	513
Frame#	Time	L.Toe.Tip			R.Toe.Tip			L.Ankle.Lat			R.Ankle.Lat			L.Ankle.Med			R.Ankle.Med			L.Heel			R.Heel			L.Knee.Lat			R.Knee.Lat			L.Knee.Med			R.Knee.Med			L.Thigh.Upper			R.Thigh.Upper			L.ASIS			R.ASIS			V.Sacral			L.Acromium			R.Acromium			C7			L.Elbow			R.Elbow			L.Wrist.Lat			R.Wrist.Lat
		X1	Y1	Z1	X2	Y2	Z2	X3	Y3	Z3	X4	Y4	Z4	X5	Y5	Z5	X6	Y6	Z6	X7	Y7	Z7	X8	Y8	Z8	X9	Y9	Z9	X10	Y10	Z10	X11	Y11	Z11	X12	Y12	Z12	X13	Y13	Z13	X14	Y14	Z14	X15	Y15	Z15	X16	Y16	Z16	X17	Y17	Z17	X18	Y18	Z18	X19	Y19	Z19	X20	Y20	Z20	X21	Y21	Z21	X22	Y22	Z22	X23	Y23	Z23	X24	Y24	Z24

193	0.768	0.13296677	-0.057030859	0.067582798	-0.64039461	0.046043276	0.084972936	-0.011272981	-0.02740118	0.011340718	-0.73014501	0.15922177	0.1273211	-0.00045374068	-0.0059063733	0.10722548	-0.67688791	0.16898425	0.046168196	-0.085686941	-0.063946819	0.050234144	-0.78361962	0.19078835	0.066761925	0.011536804	0.3872982	-0.050407643	-0.33177796	0.36631875	0.22252982	-0.0062058202	0.39187545	0.074123494	-0.31967767	0.34510284	0.096416741	-0.18071896	0.76064841	-0.11551229	-0.26015424	0.75150098	0.25047548	-0.12518122	0.84833426	-0.042594341	-0.14562053	0.83407132	0.19753788	-0.29945793	0.89088639	0.060957107	-0.18414746	1.2947762	-0.0914229	-0.21632311	1.298923	0.24028172	-0.26402085	1.3452151	0.072859289	-0.32874586	0.96224644	-0.14979532	-0.33783442	0.94192138	0.31176086	-0.24491968	0.71995803	-0.20136142	-0.1131247	0.78014655	0.31101988
194	0.772	0.13349611	-0.057500929	0.067688412	-0.63828664	0.047388224	0.086084812	-0.010508085	-0.027597269	0.011668981	-0.72363813	0.1639164	0.13019473	9.7184433e-05	-0.0062200145	0.10754511	-0.67036198	0.1726487	0.048940317	-0.085419571	-0.063672173	0.050335956	-0.77618924	0.19728704	0.070175525	0.017932458	0.38651987	-0.050556576	-0.32212347	0.36507929	0.22319386	0.0015475272	0.3921655	0.073986056	-0.31164964	0.34359188	0.098196843	-0.17531439	0.76078095	-0.1160946	-0.25292178	0.75053742	0.25053264	-0.11847842	0.84889724	-0.043313459	-0.1387769	0.83311796	0.19682352	-0.29225736	0.89019762	0.060520291	-0.17743179	1.2943705	-0.091314119	-0.20878858	1.2984594	0.24043574	-0.25706402	1.3446839	0.07307632	-0.32142728	0.96155426	-0.14950161	-0.33131264	0.94202414	0.31091069	-0.23663728	0.7194593	-0.20142194	-0.10956303	0.77646506	0.31175072
195	0.776	0.13375392	-0.057884377	0.06794892	-0.63598725	0.048811165	0.087285146	-0.010110013	-0.027801229	0.01191594	-0.71678801	0.16864805	0.13336184	0.00032422805	-0.0065028694	0.10786681	-0.66335415	0.17617905	0.051700456	-0.085324361	-0.063534017	0.050325998	-0.768233	0.2037909	0.0736275	0.023603057	0.38535855	-0.05048093	-0.31218263	0.36370329	0.22381928	0.0087809174	0.39197683	0.073882517	-0.30314073	0.34214403	0.099495486	-0.16979354	0.7608238	-0.11656743	-0.2457778	0.74968028	0.25047142	-0.11179393	0.84944689	-0.043995976	-0.13210493	0.83228374	0.19615448	-0.28660532	0.8901175	0.060414983	-0.17072134	1.2940683	-0.091201669	-0.20120198	1.2981122	0.24059717	-0.25015752	1.3442567	0.073310778	-0.31409337	0.96098986	-0.14922961	-0.32464834	0.94225981	0.31008622	-0.22828064	0.71910043	-0.20144054	-0.1060871	0.77289688	0.31245422
196	0.78	0.13381092	-0.058189636	0.068350714	-0.63344445	0.050294214	0.088536983	-0.0099615965	-0.027977293	0.012107644	-0.70945422	0.17334132	0.13660637	0.00029790951	-0.0067739874	0.10822357	-0.65577304	0.17955012	0.054461875	-0.085332695	-0.063499433	0.050256888	-0.75974197	0.21027112	0.077177262	0.028568491	0.38389219	-0.050238924	-0.30190618	0.3622185	0.22445598	0.015522663	0.39131231	0.073884914	-0.29398113	0.34077692	0.10022848	-0.1641264	0.76076367	-0.11690955	-0.23869799	0.74889559	0.25032207	-0.10513322	0.84993858	-0.044603698	-0.12562525	0.83156672	0.19552685	-0.28206024	0.89053823	0.060751604	-0.16402887	1.2938713	-0.091091124	-0.19359144	1.2978794	0.24075947	-0.24330962	1.3439576	0.073562588	-0.30665986	0.96051897	-0.14908282	-0.31782594	0.94260282	0.30931006	-0.21985452	0.71886947	-0.20141462	-0.10268989	0.76944787	0.31312454
197	0.784	0.13381721	-0.058446532	0.068808306	-0.63060857	0.05181772	0.089833065	-0.0098399304	-0.028122947	0.012303774	-0.70148047	0.17794569	0.13964378	0.00018035298	-0.0070918081	0.10865767	-0.64763613	0.18277163	0.057233473	-0.085337806	-0.063485969	0.05021381	-0.75063563	0.21662889	0.080731088	0.032875803	0.38233077	-0.050036725	-0.29125563	0.36068236	0.22513992	0.021852075	0.39022703	0.074052785	-0.2842017	0.33947141	0.1005884	-0.15834185	0.76060663	-0.11713047	-0.23163042	0.74815315	0.25010175	-0.098513924	0.85034219	-0.045124168	-0.11930045	0.83097198	0.19496502	-0.27819746	0.89135847	0.061581255	-0.15735575	1.2937813	-0.090984166	-0.18598045	1.2977558	0.24091694	-0.23651376	1.343788	0.073809344	-0.29916336	0.96011278	-0.14902884	-0.31092285	0.94305246	0.30861655	-0.21135127	0.71875656	-0.20133517	-0.09937899	0.76611486	0.31376414
198	0.788	0.13389428	-0.058684402	0.069235281	-0.62746153	0.053349141	0.09118532	-0.0095852562	-0.028259209	0.012550958	-0.6928328	0.18243636	0.14248949	0.00013337814	-0.0074858692	0.10918352	-0.63908147	0.18586804	0.059985228	-0.085262374	-0.063428996	0.050242564	-0.74086118	0.22279668	0.084163934	0.03669671	0.38085709	-0.050015638	-0.28026902	0.35915223	0.22581043	0.027766375	0.38883134	0.0743792	-0.27399909	0.33819335	0.1008027	-0.152452	0.76038327	-0.11727243	-0.22453823	0.74744292	0.24982773	-0.091970044	0.8506459	-0.045565025	-0.11303257	0.83051532	0.19451779	-0.27523314	0.89257885	0.062971338	-0.15068696	1.2937909	-0.090880615	-0.17840273	1.2977367	0.24107176	-0.22972181	1.3437342	0.073988972	-0.29174199	0.9597658	-0.1489458	-0.30409037	0.94362666	0.30804712	-0.20276154	0.71875741	-0.20119303	-0.096152317	0.7628952	0.31437577
199	0.792	0.13406537	-0.058904324	0.069576134	-0.62400759	0.054861555	0.092626523	-0.009185534	-0.028411562	0.012836611	-0.68356355	0.18681102	0.14531458	0.00024403391	-0.007913248	0.10973287	-0.63020476	0.18887807	0.062652075	-0.085112137	-0.063305426	0.050332497	-0.73048006	0.22880517	0.087456507	0.040302206	0.37950418	-0.050117586	-0.2690438	0.35765734	0.22632126	0.033069042	0.38725842	0.074738526	-0.26362611	0.33695432	0.10105877	-0.14644586	0.76014212	-0.11738376	-0.21746659	0.74676696	0.24953669	-0.085523657	0.85085933	-0.045931409	-0.10674071	0.83022065	0.19421898	-0.27322957	0.89397825	0.064572811	-0.14400451	1.2938859	-0.090782234	-0.17091342	1.2978239	0.24122905	-0.22286962	1.3437889	0.074041664	-0.28446591	0.95947701	-0.14882072	-0.29744151	0.94432698	0.30762783	-0.19408415	0.71887227	-0.20098437	-0.092971768	0.75979964	0.31495246
200	0.796	0.13426785	-0.059083159	0.069809916	-0.62025037	0.056375884	0.094193492	-0.0087431859	-0.028592971	0.013088115	-0.67374867	0.19107605	0.1481599	0.00048209551	-0.0082877351	0.11018541	-0.62100082	0.19185191	0.065176581	-0.084956332	-0.063136114	0.050435286	-0.71960058	0.23471336	0.090650198	0.043885402	0.37821815	-0.050198652	-0.25767036	0.35623046	0.22657156	0.037508312	0.38564808	0.074953182	-0.25317525	0.33581274	0.10141862	-0.14031833	0.75993979	-0.11749884	-0.21050884	0.74613026	0.24926644	-0.079183819	0.85100331	-0.046227098	-0.10045388	0.83010189	0.19404646	-0.27081737	0.89491012	0.065465958	-0.13730211	1.2940574	-0.090692058	-0.1635648	1.2980242	0.24138876	-0.21596446	1.3439673	0.074012225	-0.27730862	0.95923776	-0.14877593	-0.29090946	0.94511639	0.30735295	-0.18532935	0.71910152	-0.20070732	-0.089781007	0.7568502	0.31548021
201	0.8	0.13442307	-0.059206703	0.069949777	-0.61613952	0.05795667	0.095874517	-0.0083757389	-0.028802542	0.013236813	-0.66350534	0.19521065	0.15093576	0.00072801988	-0.0085533277	0.11046892	-0.61143578	0.19483032	0.067542058	-0.084858317	-0.062969811	0.050493031	-0.70832187	0.24055223	0.093815695	0.047438179	0.37698174	-0.050185346	-0.24618924	0.3549378	0.2265911	0.041061685	0.384161	0.074948021	-0.24254094	0.3348371	0.10175497	-0.13408856	0.75983061	-0.1176264	-0.20370359	0.74554863	0.24902847	-0.072952922	0.85110052	-0.046458616	-0.094278191	0.83015288	0.19394235	-0.26657253	0.89499906	0.065355921	-0.1305765	1.2943046	-0.090606606	-0.15636864	1.2983419	0.24154656	-0.20908481	1.344297	0.074023405	-0.27023641	0.9590527	-0.14891019	-0.28430846	0.94595132	0.30719788	-0.17650876	0.71944406	-0.20036315	-0.086559638	0.75405973	0.3159525
